# xmcd
# 
# Track frame offsets:
#     150
#     3974
#     33785
#     72105
#     104566
#     134640
#     138711
#     161935
# 
# Disc length: 3151
# 
# Revision: 0
# Processed by: cddbd v1.5.2PL0 Copyright (c) Steve Scherf et al.
# Submitted via: fre:ac v1.0.17
# 
DISCID=700c4d08
DTITLE=Giant Squid - Metridium Field
DYEAR=2004
DGENRE=Metal
TTITLE0=Megaptera in the Delta
TTITLE1=Neonate
TTITLE2=Namor versus Siren
TTITLE3=Ampullae of Lorenzini
TTITLE4=Summit
TTITLE5=Eating Machine
TTITLE6=Revolution in the Water
TTITLE7=Metridium Field
EXTD=
EXTT0=
EXTT1=
EXTT2=
EXTT3=
EXTT4=
EXTT5=
EXTT6=
EXTT7=
PLAYORDER=
